<?xml version="1.0" encoding="iso-8859-1"?>
<!-- Uploaded to: SVG Repo, www.svgrepo.com, Generator: SVG Repo Mixer Tools -->
<svg fill="#000000" height="800px" width="800px" version="1.1" id="Layer_1" xmlns="http://www.w3.org/2000/svg" xmlns:xlink="http://www.w3.org/1999/xlink" 
	 viewBox="0 0 512 512" xml:space="preserve">
<g>
	<g>
		<path d="M495.304,478.609H33.391V16.696C33.391,7.475,25.916,0,16.696,0S0,7.475,0,16.696v478.609C0,504.525,7.475,512,16.696,512
			h478.609c9.22,0,16.696-7.475,16.696-16.696S504.525,478.609,495.304,478.609z"/>
	</g>
</g>
<g>
	<g>
		<path d="M461.913,144.696c-27.618,0-50.087,22.469-50.087,50.087c0,7.723,1.76,15.043,4.895,21.582l-66.793,66.792
			c-6.539-3.135-13.857-4.895-21.581-4.895c-7.722,0-15.042,1.76-21.581,4.894l-33.401-33.4c3.135-6.539,4.895-13.857,4.895-21.581
			c0-27.618-22.469-50.087-50.087-50.087c-27.618,0-50.087,22.469-50.087,50.087c0,7.723,1.76,15.042,4.895,21.581l-44.532,44.531
			c-6.539-3.134-13.859-4.894-21.581-4.894c-27.618,0-50.087,22.469-50.087,50.087s22.469,50.087,50.087,50.087
			c27.618,0,50.087-22.469,50.087-50.087c0-7.723-1.76-15.042-4.895-21.581l44.532-44.531c6.539,3.134,13.858,4.894,21.581,4.894
			c7.723,0,15.042-1.76,21.581-4.894l33.401,33.4c-3.135,6.539-4.895,13.857-4.895,21.581c0,27.618,22.469,50.087,50.087,50.087
			s50.087-22.469,50.087-50.087c0-7.723-1.76-15.043-4.895-21.582l66.793-66.792c6.539,3.135,13.857,4.895,21.581,4.895
			c27.618,0,50.087-22.469,50.087-50.087C512,167.165,489.531,144.696,461.913,144.696z M116.87,356.174
			c-9.206,0-16.696-7.49-16.696-16.696s7.49-16.696,16.696-16.696s16.696,7.49,16.696,16.696S126.076,356.174,116.87,356.174z
			 M228.174,244.87c-9.206,0-16.696-7.49-16.696-16.696c0-9.206,7.49-16.696,16.696-16.696c9.206,0,16.696,7.49,16.696,16.696
			C244.87,237.38,237.38,244.87,228.174,244.87z M328.348,345.043c-9.206,0-16.696-7.49-16.696-16.696s7.49-16.696,16.696-16.696
			s16.696,7.49,16.696,16.696S337.554,345.043,328.348,345.043z M461.913,211.478c-9.206,0-16.696-7.49-16.696-16.696
			c0-9.206,7.49-16.696,16.696-16.696s16.696,7.49,16.696,16.696C478.609,203.989,471.119,211.478,461.913,211.478z"/>
	</g>
</g>
</svg>