<?xml version="1.0" encoding="UTF-8" standalone="no"?>
<!-- Uploaded to: SVG Repo, www.svgrepo.com, Generator: SVG Repo Mixer Tools -->

<svg
   fill="#000000"
   version="1.1"
   id="Capa_1"
   width="800px"
   height="800px"
   viewBox="0 0 412.123 412.122"
   xml:space="preserve"
   sodipodi:docname="forbidden-sign-svgrepo-com.svg"
   inkscape:version="1.1.2 (b8e25be833, 2022-02-05)"
   xmlns:inkscape="http://www.inkscape.org/namespaces/inkscape"
   xmlns:sodipodi="http://sodipodi.sourceforge.net/DTD/sodipodi-0.dtd"
   xmlns="http://www.w3.org/2000/svg"
   xmlns:svg="http://www.w3.org/2000/svg"><defs
   id="defs9" /><sodipodi:namedview
   id="namedview7"
   pagecolor="#ffffff"
   bordercolor="#666666"
   borderopacity="1.0"
   inkscape:pageshadow="2"
   inkscape:pageopacity="0.0"
   inkscape:pagecheckerboard="0"
   showgrid="false"
   inkscape:zoom="0.805"
   inkscape:cx="400"
   inkscape:cy="400"
   inkscape:window-width="1920"
   inkscape:window-height="1017"
   inkscape:window-x="-8"
   inkscape:window-y="-8"
   inkscape:window-maximized="1"
   inkscape:current-layer="Capa_1" />
<g
   id="g4"
   style="stroke:none;stroke-opacity:1;fill:#ff6666;fill-opacity:1">
	<path
   d="M206.061,0C92.441,0,0,92.436,0,206.062C0,319.69,92.441,412.122,206.061,412.122   c113.616,0,206.062-92.432,206.062-206.061C412.123,92.436,319.677,0,206.061,0z M54.474,206.062   c0-83.587,68-151.588,151.587-151.588c32.816,0,63.21,10.513,88.047,28.307L82.78,294.108   C64.992,269.271,54.474,238.878,54.474,206.062z M206.061,357.649c-31.129,0-60.083-9.446-84.187-25.594l210.181-210.182   c16.147,24.096,25.593,53.064,25.593,84.188C357.648,289.651,289.651,357.649,206.061,357.649z"
   id="path2"
   style="stroke:none;stroke-opacity:1;fill:#ff6666;fill-opacity:1" />
</g>
</svg>
